<mxfile host="app.diagrams.net" modified="2023-12-15T07:42:47.217Z" agent="Mozilla/5.0 (Macintosh; Intel Mac OS X 10_15_7) AppleWebKit/537.36 (KHTML, like Gecko) Chrome/120.0.0.0 Safari/537.36" etag="4ydej97mLscTBThrL5KV" version="22.1.9" type="device">
  <diagram name="Страница — 1" id="_APiyVmFqUwVhe21ZN9r">
    <mxGraphModel dx="1026" dy="568" grid="1" gridSize="10" guides="1" tooltips="1" connect="1" arrows="1" fold="1" page="1" pageScale="1" pageWidth="1169" pageHeight="827" math="0" shadow="0">
      <root>
        <mxCell id="0" />
        <mxCell id="1" parent="0" />
        <mxCell id="WPobIjADrkoRhsH-OCHw-3" style="edgeStyle=orthogonalEdgeStyle;rounded=0;orthogonalLoop=1;jettySize=auto;html=1;" parent="1" source="WPobIjADrkoRhsH-OCHw-1" target="WPobIjADrkoRhsH-OCHw-2" edge="1">
          <mxGeometry relative="1" as="geometry" />
        </mxCell>
        <mxCell id="WPobIjADrkoRhsH-OCHw-1" value="" style="ellipse;whiteSpace=wrap;html=1;aspect=fixed;fillColor=#000000;" parent="1" vertex="1">
          <mxGeometry x="455" y="170" width="30" height="30" as="geometry" />
        </mxCell>
        <mxCell id="WPobIjADrkoRhsH-OCHw-5" value="Ні" style="edgeStyle=orthogonalEdgeStyle;rounded=0;orthogonalLoop=1;jettySize=auto;html=1;" parent="1" source="WPobIjADrkoRhsH-OCHw-2" target="WPobIjADrkoRhsH-OCHw-4" edge="1">
          <mxGeometry relative="1" as="geometry" />
        </mxCell>
        <mxCell id="WPobIjADrkoRhsH-OCHw-7" value="Так" style="edgeStyle=orthogonalEdgeStyle;rounded=0;orthogonalLoop=1;jettySize=auto;html=1;" parent="1" source="WPobIjADrkoRhsH-OCHw-2" target="WPobIjADrkoRhsH-OCHw-6" edge="1">
          <mxGeometry relative="1" as="geometry" />
        </mxCell>
        <mxCell id="WPobIjADrkoRhsH-OCHw-2" value="Є обліковий запис?" style="rhombus;whiteSpace=wrap;html=1;" parent="1" vertex="1">
          <mxGeometry x="387.5" y="220" width="165" height="80" as="geometry" />
        </mxCell>
        <mxCell id="WPobIjADrkoRhsH-OCHw-9" value="" style="edgeStyle=orthogonalEdgeStyle;rounded=0;orthogonalLoop=1;jettySize=auto;html=1;" parent="1" source="WPobIjADrkoRhsH-OCHw-4" target="WPobIjADrkoRhsH-OCHw-8" edge="1">
          <mxGeometry relative="1" as="geometry" />
        </mxCell>
        <mxCell id="WPobIjADrkoRhsH-OCHw-4" value="Зареєструватись" style="whiteSpace=wrap;html=1;" parent="1" vertex="1">
          <mxGeometry x="220" y="320" width="120" height="30" as="geometry" />
        </mxCell>
        <mxCell id="WPobIjADrkoRhsH-OCHw-10" style="edgeStyle=orthogonalEdgeStyle;rounded=0;orthogonalLoop=1;jettySize=auto;html=1;" parent="1" source="WPobIjADrkoRhsH-OCHw-6" target="WPobIjADrkoRhsH-OCHw-8" edge="1">
          <mxGeometry relative="1" as="geometry" />
        </mxCell>
        <mxCell id="WPobIjADrkoRhsH-OCHw-6" value="Увійти з поштою" style="whiteSpace=wrap;html=1;" parent="1" vertex="1">
          <mxGeometry x="600" y="320" width="120" height="30" as="geometry" />
        </mxCell>
        <mxCell id="WPobIjADrkoRhsH-OCHw-12" value="" style="edgeStyle=orthogonalEdgeStyle;rounded=0;orthogonalLoop=1;jettySize=auto;html=1;" parent="1" source="WPobIjADrkoRhsH-OCHw-8" target="WPobIjADrkoRhsH-OCHw-11" edge="1">
          <mxGeometry relative="1" as="geometry" />
        </mxCell>
        <mxCell id="WPobIjADrkoRhsH-OCHw-14" value="" style="edgeStyle=orthogonalEdgeStyle;rounded=0;orthogonalLoop=1;jettySize=auto;html=1;" parent="1" source="WPobIjADrkoRhsH-OCHw-8" target="WPobIjADrkoRhsH-OCHw-13" edge="1">
          <mxGeometry relative="1" as="geometry" />
        </mxCell>
        <mxCell id="WPobIjADrkoRhsH-OCHw-19" value="" style="edgeStyle=orthogonalEdgeStyle;rounded=0;orthogonalLoop=1;jettySize=auto;html=1;" parent="1" source="WPobIjADrkoRhsH-OCHw-8" target="WPobIjADrkoRhsH-OCHw-18" edge="1">
          <mxGeometry relative="1" as="geometry" />
        </mxCell>
        <mxCell id="WPobIjADrkoRhsH-OCHw-8" value="Головний список зі створеними нотатками" style="whiteSpace=wrap;html=1;" parent="1" vertex="1">
          <mxGeometry x="410" y="400" width="120" height="60" as="geometry" />
        </mxCell>
        <mxCell id="WPobIjADrkoRhsH-OCHw-16" value="" style="edgeStyle=orthogonalEdgeStyle;rounded=0;orthogonalLoop=1;jettySize=auto;html=1;" parent="1" source="WPobIjADrkoRhsH-OCHw-11" target="WPobIjADrkoRhsH-OCHw-15" edge="1">
          <mxGeometry relative="1" as="geometry" />
        </mxCell>
        <mxCell id="WPobIjADrkoRhsH-OCHw-11" value="Натиснути на написану нотатку" style="whiteSpace=wrap;html=1;" parent="1" vertex="1">
          <mxGeometry x="300" y="505" width="120" height="60" as="geometry" />
        </mxCell>
        <mxCell id="WPobIjADrkoRhsH-OCHw-17" style="edgeStyle=orthogonalEdgeStyle;rounded=0;orthogonalLoop=1;jettySize=auto;html=1;" parent="1" source="WPobIjADrkoRhsH-OCHw-13" target="WPobIjADrkoRhsH-OCHw-15" edge="1">
          <mxGeometry relative="1" as="geometry" />
        </mxCell>
        <mxCell id="WPobIjADrkoRhsH-OCHw-13" value="Почати писати для нової нотатки" style="whiteSpace=wrap;html=1;" parent="1" vertex="1">
          <mxGeometry x="520" y="505" width="120" height="60" as="geometry" />
        </mxCell>
        <mxCell id="WPobIjADrkoRhsH-OCHw-21" style="edgeStyle=orthogonalEdgeStyle;rounded=0;orthogonalLoop=1;jettySize=auto;html=1;" parent="1" source="WPobIjADrkoRhsH-OCHw-15" target="WPobIjADrkoRhsH-OCHw-8" edge="1">
          <mxGeometry relative="1" as="geometry">
            <Array as="points">
              <mxPoint x="290" y="645" />
              <mxPoint x="290" y="430" />
            </Array>
          </mxGeometry>
        </mxCell>
        <mxCell id="WPobIjADrkoRhsH-OCHw-15" value="Режим перегляду/редагування нотатки" style="whiteSpace=wrap;html=1;" parent="1" vertex="1">
          <mxGeometry x="405" y="615" width="125" height="60" as="geometry" />
        </mxCell>
        <mxCell id="WPobIjADrkoRhsH-OCHw-20" style="edgeStyle=orthogonalEdgeStyle;rounded=0;orthogonalLoop=1;jettySize=auto;html=1;" parent="1" source="WPobIjADrkoRhsH-OCHw-18" edge="1">
          <mxGeometry relative="1" as="geometry">
            <mxPoint x="470" y="370" as="targetPoint" />
            <Array as="points">
              <mxPoint x="660" y="370" />
            </Array>
          </mxGeometry>
        </mxCell>
        <mxCell id="WPobIjADrkoRhsH-OCHw-18" value="Сторінка налаштувань" style="whiteSpace=wrap;html=1;" parent="1" vertex="1">
          <mxGeometry x="600" y="400" width="120" height="60" as="geometry" />
        </mxCell>
      </root>
    </mxGraphModel>
  </diagram>
</mxfile>
